<svg width="12" height="12" viewBox="0 0 12 12" fill="none" xmlns="http://www.w3.org/2000/svg">
<path d="M5.9971 0.166626C2.77419 0.166626 0.166687 2.77704 0.166687 5.99996C0.166687 9.22288 2.77419 11.8333 5.9971 11.8333C9.22002 11.8333 11.8334 9.22288 11.8334 5.99996C11.8334 2.77704 9.22002 0.166626 5.9971 0.166626ZM6.00002 10.6666C3.42169 10.6666 1.33335 8.57829 1.33335 5.99996C1.33335 3.42163 3.42169 1.33329 6.00002 1.33329C8.57835 1.33329 10.6667 3.42163 10.6667 5.99996C10.6667 8.57829 8.57835 10.6666 6.00002 10.6666ZM6.29169 3.08329H5.41669V6.58329L8.47627 8.42079L8.91669 7.70329L6.29169 6.14579V3.08329Z" fill="white"/>
</svg>
