<svg width="12" height="12" viewBox="0 0 12 12" fill="none" xmlns="http://www.w3.org/2000/svg">
<path d="M5.83042 0.166687C2.6075 0.166687 0 2.7771 0 6.00002C0 9.22294 2.6075 11.8334 5.83042 11.8334C9.05333 11.8334 11.6667 9.22294 11.6667 6.00002C11.6667 2.7771 9.05333 0.166687 5.83042 0.166687ZM5.83333 10.6667C3.255 10.6667 1.16667 8.57835 1.16667 6.00002C1.16667 3.42169 3.255 1.33335 5.83333 1.33335C8.41167 1.33335 10.5 3.42169 10.5 6.00002C10.5 8.57835 8.41167 10.6667 5.83333 10.6667ZM6.125 3.08335H5.25V6.58335L8.30958 8.42085L8.75 7.70335L6.125 6.14585V3.08335Z" fill="#666666"/>
</svg>
