<svg width="24" height="20" viewBox="0 0 24 20" fill="none" xmlns="http://www.w3.org/2000/svg">
<path d="M6.85678 10.36C5.58973 10.0619 4.64566 8.91902 4.64566 7.5526C4.64566 5.96258 5.93755 4.67068 7.52757 4.67068C8.49649 4.67068 9.34119 5.14272 9.86292 5.8632C10.2356 5.61476 10.6331 5.41601 11.0803 5.26694C10.335 4.09927 9.01822 3.3291 7.52757 3.3291C5.19223 3.3291 3.30408 5.21725 3.30408 7.5526C3.30408 9.21715 4.273 10.6581 5.68911 11.3289C6.03693 10.9562 6.43443 10.6333 6.85678 10.36Z" fill="#6D1D1D"/>
<path d="M7.55263 2.45957C7.92529 2.45957 8.22342 2.16144 8.22342 1.78877V0.670791C8.22342 0.298129 7.92529 0 7.55263 0C7.17996 0 6.88184 0.298129 6.88184 0.670791V1.78877C6.88184 2.16144 7.17996 2.45957 7.55263 2.45957Z" fill="#6D1D1D"/>
<path d="M2.45957 7.55263C2.45957 7.17996 2.16144 6.88184 1.78877 6.88184H0.670791C0.298129 6.88184 0 7.17996 0 7.55263C0 7.92529 0.298129 8.22342 0.670791 8.22342H1.78877C2.16144 8.22342 2.45957 7.92529 2.45957 7.55263Z" fill="#6D1D1D"/>
<path d="M3.95044 3.95032C4.19888 3.70188 4.19888 3.27953 3.95044 3.00624L3.15543 2.21123C2.90699 1.96279 2.48464 1.96279 2.21136 2.21123C1.96291 2.45967 1.96291 2.88202 2.21136 3.15531L3.00637 3.95032C3.13059 4.07454 3.3045 4.14907 3.4784 4.14907C3.65231 4.14907 3.82622 4.07454 3.95044 3.95032Z" fill="#6D1D1D"/>
<path d="M2.68339 13.0929C2.8573 13.0929 3.03121 13.0184 3.15543 12.8942L3.95044 12.0992C4.19888 11.8507 4.19888 11.4284 3.95044 11.1551C3.702 10.9066 3.27965 10.9066 3.00637 11.1551L2.21136 11.9501C1.96291 12.1985 1.96291 12.6209 2.21136 12.8942C2.33558 13.0184 2.50948 13.0929 2.68339 13.0929Z" fill="#6D1D1D"/>
<path d="M11.6271 4.14907C11.801 4.14907 11.9749 4.07454 12.0992 3.95032L12.8942 3.15531C13.1426 2.90687 13.1426 2.48452 12.8942 2.21123C12.6457 1.96279 12.2234 1.96279 11.9501 2.21123L11.1551 3.00624C10.9066 3.25469 10.9066 3.67703 11.1551 3.95032C11.3041 4.07454 11.4532 4.14907 11.6271 4.14907Z" fill="#6D1D1D"/>
<path d="M22.0862 9.19219L22.0614 9.16734C21.2415 8.47171 20.2726 8.02452 19.2291 7.87545C19.1298 7.85061 19.0552 7.85061 18.9558 7.85061C18.931 7.85061 18.931 7.85061 18.9062 7.85061C18.8316 7.85061 18.7571 7.82576 18.6826 7.82576C18.6577 7.82576 18.6329 7.82576 18.608 7.82576C18.5335 7.82576 18.4838 7.82576 18.4093 7.82576C18.3844 7.82576 18.3844 7.82576 18.3596 7.82576C18.3347 7.82576 18.3099 7.82576 18.2851 7.82576C18.2354 7.82576 18.2105 7.82576 18.1608 7.82576C18.136 7.82576 18.136 7.82576 18.1111 7.82576C17.0677 6.01214 15.1547 4.94385 13.0678 4.94385C12.3722 4.94385 11.7262 5.06807 11.1051 5.26682C10.6828 5.41589 10.2853 5.61464 9.88775 5.86308C8.42194 6.78231 7.40334 8.34749 7.20458 10.1611C7.08036 10.2108 6.98099 10.2853 6.85677 10.3599C6.40957 10.6331 6.03691 10.9561 5.68909 11.3536C4.96861 12.1983 4.54626 13.2915 4.54626 14.4343C4.54626 17.0429 6.68286 19.1795 9.29149 19.1795H18.3347C21.4651 19.1795 23.9992 16.6206 23.9992 13.5151C24.024 11.776 23.2787 10.2356 22.0862 9.19219ZM9.31633 17.8131C7.42818 17.8131 5.91269 16.2728 5.91269 14.4094C5.91269 12.9933 6.78223 11.7511 8.09897 11.2294C8.34741 11.13 8.52132 10.9064 8.52132 10.6331C8.6207 8.17358 10.6082 6.26059 13.0678 6.26059C14.5087 6.26059 15.8255 6.93138 16.695 8.04936C15.6764 8.37233 14.7572 8.94375 14.0616 9.78845C13.8131 10.0617 13.8628 10.4841 14.1361 10.7325C14.2603 10.8319 14.4094 10.8816 14.5584 10.8816C14.7572 10.8816 14.9311 10.8071 15.0553 10.658C15.8006 9.78845 16.8689 9.24188 18.0118 9.1425C18.931 9.06797 19.8005 9.29156 20.5707 9.73876C20.6204 9.7636 20.6701 9.78845 20.7198 9.83813C20.7446 9.86298 20.7695 9.86298 20.7943 9.88782C20.8937 9.93751 20.9682 10.012 21.0427 10.0866C21.0676 10.1114 21.0924 10.1363 21.1173 10.1611C22.0862 10.9561 22.6825 12.1486 22.6825 13.4902C22.6825 15.8753 20.7198 17.8379 18.3347 17.8379H9.31633V17.8131Z" fill="#6D1D1D"/>
</svg>
