<svg width="16" height="10" viewBox="0 0 16 10" fill="none" xmlns="http://www.w3.org/2000/svg">
<path d="M15.0539 4.62998C14.9365 4.45465 12.1399 0.333313 7.83252 0.333313C3.50319 0.333313 0.725857 4.45665 0.609857 4.63198C0.461857 4.85531 0.461857 5.14598 0.611191 5.36931C0.728524 5.54531 3.52519 9.66665 7.83252 9.66665C12.1179 9.66665 14.9345 5.54731 15.0525 5.37198C15.2032 5.14798 15.2039 4.85465 15.0539 4.62998ZM7.83252 8.33331C4.93252 8.33331 2.74252 5.93598 1.99719 4.99865C2.43586 4.44398 3.38052 3.38198 4.67986 2.60531C4.56586 2.93865 4.49919 3.29398 4.49919 3.66665C4.49919 5.50465 5.99452 6.99998 7.83252 6.99998C9.67052 6.99998 11.1659 5.50465 11.1659 3.66665C11.1659 3.29665 11.0999 2.94331 10.9872 2.61198C12.2805 3.38798 13.2252 4.44531 13.6659 4.99931C12.9145 5.93798 10.7152 8.33331 7.83252 8.33331Z" fill="#666666"/>
</svg>
