<svg width="16" height="16" viewBox="0 0 16 16" fill="none" xmlns="http://www.w3.org/2000/svg">
<path d="M15.2212 7.63004C15.1039 7.45471 12.3072 3.33337 7.99991 3.33337C3.67058 3.33337 0.893246 7.45671 0.777246 7.63204C0.629246 7.85537 0.629246 8.14604 0.77858 8.36937C0.895913 8.54537 3.69258 12.6667 7.99991 12.6667C12.2852 12.6667 15.1019 8.54737 15.2199 8.37204C15.3706 8.14804 15.3712 7.85471 15.2212 7.63004ZM7.99991 11.3334C5.09991 11.3334 2.90991 8.93604 2.16458 7.99871C2.60325 7.44404 3.54791 6.38204 4.84725 5.60537C4.73325 5.93871 4.66658 6.29404 4.66658 6.66671C4.66658 8.50471 6.16191 10 7.99991 10C9.83791 10 11.3332 8.50471 11.3332 6.66671C11.3332 6.29671 11.2672 5.94337 11.1546 5.61204C12.4479 6.38804 13.3926 7.44537 13.8332 7.99937C13.0819 8.93804 10.8826 11.3334 7.99991 11.3334Z" fill="white"/>
</svg>
