<svg width="18" height="18" viewBox="0 0 18 18" fill="none" xmlns="http://www.w3.org/2000/svg">
<path d="M12.3168 18L14.5655 18C15.2401 18 15.6899 17.5507 15.6899 16.8768L15.6899 8.90171L16.8142 8.90171C17.1515 8.90171 17.4888 8.78939 17.7137 8.56474C18.1634 8.11544 18.051 7.4415 17.6013 6.9922L9.73082 0.252728C9.28108 -0.0842455 8.71891 -0.0842455 8.26917 0.252728L0.398732 6.9922C-0.0510075 7.4415 -0.163442 8.11544 0.286297 8.56474C0.398732 8.78939 0.736036 8.90171 1.07334 8.90171C1.29821 8.90171 2.19769 8.90171 2.19769 8.90171L2.19769 16.8768C2.19769 17.5507 2.64743 18 3.32204 18L5.57073 18C6.24534 18 6.69508 17.5507 6.69508 16.8768L6.69508 13.3947L11.1925 13.3947L11.1925 16.8768C11.1925 17.5507 11.6422 18 12.3168 18Z" fill="#6D1D1D"/>
</svg>
