<svg width="49" height="52" viewBox="0 0 49 52" fill="none" xmlns="http://www.w3.org/2000/svg">
<path fill-rule="evenodd" clip-rule="evenodd" d="M27.3415 26.2703C27.3415 30.7235 20.9637 30.7235 20.9637 26.2703C20.9637 21.817 27.3415 21.817 27.3415 26.2703ZM40.0971 21.2604C43.286 22.3737 45.9435 24.0436 48.6009 26.2703C49.1324 26.2703 49.1324 26.8269 48.6009 27.3836C45.9435 29.0536 42.7546 30.7235 39.5657 31.8368H39.0342C38.5027 30.1669 36.9082 28.4969 35.8453 27.3836C35.3138 27.3836 35.3138 26.8269 35.8453 26.2703C37.4397 25.1569 38.5027 23.487 39.5657 21.817C39.5657 21.2604 39.5657 21.2604 40.0971 21.2604ZM8.73949 21.2604C5.55057 22.3737 2.89315 24.0436 0.235727 26.2703C-0.295758 26.2703 0.235727 26.8269 0.235727 27.3836C2.89315 29.0536 6.08207 30.7235 9.27098 31.8368H9.80246C10.3339 30.1669 11.9284 28.4969 12.9914 27.3836C13.5229 27.3836 13.5229 26.8269 12.9914 26.2703C11.3969 25.1569 10.334 23.487 9.27098 21.817C9.27098 21.2604 8.73949 21.2604 8.73949 21.2604ZM22.5581 20.7037C23.6211 16.2504 22.5581 14.0238 18.8377 12.3538C15.1173 10.6839 11.3969 9.0139 7.67653 8.45725C7.14505 8.45725 7.14503 8.45725 7.14503 9.01391C8.208 13.4672 9.80247 17.9204 11.9284 22.3737C13.5229 25.7136 16.1803 25.7136 19.3692 24.6003C19.3692 24.6003 19.3692 24.6003 19.9007 24.0436C19.9007 23.487 20.4322 21.817 22.5581 20.7037C22.5581 21.2604 22.0266 21.2604 22.5581 20.7037ZM22.5581 31.8368C23.6211 36.2901 22.5581 38.5167 18.8377 40.1867C15.1173 41.8566 11.3969 43.5266 7.67653 44.0833C7.14505 44.0833 7.14503 44.0833 7.14503 43.5266C8.208 39.0734 9.80247 34.6201 11.9284 30.1669C13.5229 26.8269 16.1803 26.8269 19.3692 27.9402C19.3692 27.9402 19.3692 27.9402 19.9007 28.4969C19.9007 29.6102 20.4322 30.7235 22.5581 31.8368C22.5581 31.8368 22.0266 31.2802 22.5581 31.8368ZM26.2785 31.8368C25.2156 36.2901 26.2785 38.5167 29.9989 40.1867C33.7193 41.8566 37.4397 43.5266 41.1601 44.0833C41.6916 44.0833 41.6916 44.0833 41.6916 43.5266C40.6286 39.0734 39.0342 34.6201 36.9082 30.1669C35.3138 26.8269 32.6563 26.8269 29.4674 27.9402C29.4674 27.9402 29.4674 27.9402 28.936 28.4969C28.936 29.6102 27.873 30.7235 26.2785 31.8368C26.2785 31.8368 26.2785 31.2802 26.2785 31.8368ZM28.936 42.4133C27.873 45.7532 26.2785 48.5365 24.6841 51.3198C24.6841 51.8765 24.1526 51.8765 23.6211 51.3198C22.0266 48.5365 20.4322 45.7532 19.3692 42.4133V41.8566C20.9637 40.7433 22.5581 39.63 23.6211 37.9601C23.6211 37.4034 24.1526 37.4034 24.6841 37.9601C25.747 39.63 27.3415 40.7433 28.936 41.8566V42.4133ZM26.2785 20.7037C25.2156 16.2504 26.2785 14.0238 29.9989 12.3538C33.7193 10.6839 37.4397 9.0139 41.1601 8.45725C41.6916 8.45725 41.6916 8.45725 41.6916 9.01391C40.6286 13.4672 39.0342 17.9204 36.9082 22.3737C35.3138 25.7136 32.6563 25.7136 29.4674 24.6003C29.4674 24.6003 29.4674 24.6003 28.936 24.0436C28.936 23.487 27.873 21.817 26.2785 20.7037C26.2785 21.2604 26.2785 21.2604 26.2785 20.7037ZM28.936 10.1272C27.873 6.78728 26.2785 4.004 24.6841 1.22072C24.6841 0.664059 24.1526 0.664059 23.6211 1.22072C22.0266 4.004 20.4322 6.78728 19.3692 10.1272V10.6839C20.9637 11.7972 22.5581 12.9105 23.6211 14.5805C23.6211 15.1371 24.1526 15.1371 24.6841 14.5805C25.747 12.9105 27.3415 11.7972 28.936 10.6839V10.1272Z" fill="#6D1D1D"/>
</svg>
