<svg width="57" height="52" viewBox="0 0 57 52" fill="none" xmlns="http://www.w3.org/2000/svg">
<path fill-rule="evenodd" clip-rule="evenodd" d="M35.1752 32.0701C38.9463 32.0701 43.2561 32.6318 47.0272 32.6318C56.1856 33.1935 62.1117 38.8107 50.7984 42.181C45.4111 43.8662 40.0238 44.4279 34.6365 44.4279C33.0203 44.4279 33.0203 43.8662 34.6365 43.8662C38.9463 43.3045 43.2561 42.7427 47.0272 40.4959C50.7983 38.8107 51.8758 36.0021 46.4885 33.7553C42.7174 32.0701 38.9463 32.6318 35.1752 32.6318C34.0977 33.1935 34.0977 32.0701 35.1752 32.0701ZM12.5485 34.317C10.3936 34.317 7.69996 35.4404 7.16123 35.4404C3.92885 37.1256 4.46758 38.8107 7.16123 40.4959C8.77742 41.6193 14.1647 43.8662 23.8619 44.9896C25.4781 44.9896 26.0168 45.5513 23.8619 45.5513C20.6295 45.5513 12.0098 44.9896 6.62251 43.3045C-0.919708 41.6193 -3.61336 35.4404 7.16123 34.317C8.77742 34.317 10.3936 34.317 12.5485 33.7553C14.1647 33.1936 14.7034 33.7553 12.5485 34.317ZM6.08379 46.1131C19.0133 50.0451 33.559 50.0451 49.7209 46.6748C51.3371 46.1131 51.8758 46.6748 50.2596 47.2365C33.559 53.4154 19.0133 53.4154 6.08379 46.6748C5.00633 46.1131 5.00633 46.1131 6.08379 46.1131ZM24.4006 11.2865C23.3231 8.47793 23.3232 5.10759 23.8619 2.299C24.4006 0.0521231 27.633 0.613876 27.633 2.86075C27.633 6.23106 27.0942 9.03965 25.478 11.8482C25.478 12.9717 24.9393 12.9717 24.4006 11.2865ZM25.478 7.35447C25.478 6.23104 25.4781 5.10761 26.5555 3.98417C27.0943 2.86073 25.478 2.29902 25.478 3.42246C24.9393 4.5459 24.9393 6.23104 25.478 7.35447C25.478 8.47791 25.478 7.91619 25.478 7.35447ZM25.478 17.4654C27.0942 24.7678 30.8653 36.5638 39.485 38.8107C40.0237 38.8107 40.5625 39.3725 39.485 39.3725C30.3266 43.3045 21.1682 43.3044 11.4711 38.8107C10.9324 38.249 10.9324 38.249 11.4711 37.6873C19.552 36.0021 23.8619 28.6998 24.9393 17.4654C24.9393 16.342 25.478 16.342 25.478 17.4654ZM23.8619 30.9467C24.4006 30.385 24.9393 30.385 23.8619 30.9467C23.8619 32.6318 22.7844 33.7552 22.2457 35.4404C21.7069 36.0021 21.1682 37.1256 21.707 37.6873C22.2457 38.8107 21.7069 39.9342 20.0907 39.3725C19.552 39.3725 19.0133 39.3724 18.4746 38.8107C17.9359 38.249 16.8584 37.6873 18.4746 37.1256C20.6295 35.4404 22.2457 33.7553 23.8619 30.9467Z" fill="#6D1D1D"/>
</svg>
