<svg width="48" height="47" viewBox="0 0 48 47" fill="none" xmlns="http://www.w3.org/2000/svg">
<path fill-rule="evenodd" clip-rule="evenodd" d="M23.4649 0.440317C20.7919 7.06352 16.5151 11.479 9.56531 11.479C7.42691 11.479 7.42691 11.479 9.56531 12.5829C18.6535 15.3425 29.3455 15.3425 38.4337 12.5829C40.5721 12.0309 40.5721 12.0309 38.4337 11.479C31.4839 10.9271 26.6725 7.06352 24.5341 0.440317C24.5341 -0.111616 23.4649 -0.111616 23.4649 0.440317ZM32.5531 15.3425C33.0877 15.3425 33.0877 15.3425 32.5531 15.3425C33.0877 19.2061 33.6223 21.9657 34.1569 24.7254C34.1569 24.7254 34.1569 25.2773 33.6223 25.2773C27.2071 25.8293 20.2573 25.8293 13.8421 25.2773C13.3075 25.2773 13.3075 24.7254 13.3075 24.7254C13.8421 21.9657 14.3767 18.6541 14.3767 15.8945C14.3767 15.3425 14.3767 15.3425 14.9113 15.3425C20.7919 16.4464 27.2071 16.4464 32.5531 15.3425ZM46.9873 26.9331C48.0565 26.9331 48.5911 26.9331 46.9873 28.037C32.5531 34.6602 15.4459 34.6602 1.01172 28.037C-0.592081 27.4851 -0.0574815 26.9331 1.01172 26.9331C16.5151 26.9331 31.4839 26.9331 46.9873 26.9331ZM7.96149 33.0044C7.42689 33.0044 7.4269 33.0044 7.4269 33.5563C7.4269 37.9718 7.4269 42.3873 7.4269 46.2508C7.4269 46.2508 7.42689 46.8027 7.96149 46.8027H10.6345C10.6345 46.8027 11.1691 46.8027 11.1691 46.2508V40.1795C11.1691 40.1795 11.1691 39.6276 11.7037 39.6276H16.5151C16.5151 39.6276 17.0497 39.6276 17.0497 40.1795V46.2508C17.0497 46.2508 17.0497 46.8027 17.5843 46.8027H20.2573C20.2573 46.8027 20.7919 46.8027 20.7919 46.2508V42.9392C20.7919 37.9718 28.8109 37.9718 28.8109 42.9392V46.2508C28.8109 46.2508 28.8109 46.8027 29.3455 46.8027H32.0185C32.0185 46.8027 32.5531 46.8027 32.5531 46.2508V40.1795C32.5531 40.1795 32.5531 39.6276 33.0877 39.6276H37.8991C37.8991 39.6276 38.4337 39.6276 38.4337 40.1795V46.2508C38.4337 46.2508 38.4337 46.8027 38.9683 46.8027H41.6413C41.6413 46.8027 42.1759 46.8027 42.1759 46.2508C42.1759 41.8353 42.1759 37.4199 42.1759 33.5563C42.1759 33.0044 41.6413 33.0044 41.6413 33.0044C29.8801 35.7641 18.1189 35.7641 7.96149 33.0044Z" fill="#6D1D1D"/>
</svg>
