<svg width="36" height="54" viewBox="0 0 36 54" fill="none" xmlns="http://www.w3.org/2000/svg">
<path fill-rule="evenodd" clip-rule="evenodd" d="M16.1153 6.80617C15.048 6.80617 13.447 6.80616 12.3797 7.35552C9.17772 8.45424 7.57675 13.3984 10.7787 14.4972C12.9133 15.0465 14.5143 14.4972 11.3124 15.0466C4.37478 16.6946 1.17283 22.1882 1.70649 30.4286C1.70649 31.5273 2.24014 31.5273 2.24014 30.4286C3.30746 27.1324 4.90845 24.3856 8.11041 22.7376C9.71139 21.6388 11.3124 21.6388 12.9133 21.6388C18.2499 23.2869 18.2499 23.2869 23.5865 21.6388C25.1875 21.0895 26.2548 21.6388 28.3895 22.1882C31.5914 23.8363 33.1924 26.5831 34.2597 29.8792C34.7934 30.978 34.7934 30.4286 34.7934 29.8792C35.327 21.6388 32.1251 16.1452 25.1875 14.4972C21.4519 13.9478 23.5865 13.9478 25.7212 13.9478C28.9231 13.3985 27.3222 7.90489 24.1202 6.80617C23.0529 6.25681 21.4519 6.25678 20.3846 6.25678C20.3846 6.25678 20.3846 6.25678 20.3846 5.70742C20.9182 5.15807 21.4519 4.6087 21.4519 3.50998C21.4519 1.8619 20.3846 0.763184 18.7836 0.763184C17.1826 0.763184 16.1153 1.8619 16.1153 3.50998C15.5816 5.15806 15.5816 5.70745 16.1153 6.80617C16.649 6.80617 16.649 6.25681 16.1153 6.80617ZM2.77381 46.9094C0.639172 46.9094 0.639172 50.2055 2.77381 50.2055C4.90845 50.2055 4.90845 46.9094 2.77381 46.9094ZM33.7261 46.9094C35.8607 46.9094 35.8607 50.2055 33.7261 50.2055C31.5914 50.2055 31.5914 46.9094 33.7261 46.9094ZM13.447 24.3856C9.71139 23.2869 6.50942 24.3856 4.90844 28.2311C4.37478 29.8792 3.84111 31.5273 3.84111 33.1754C3.84111 34.2741 3.84112 34.2741 3.30746 33.1754C2.7738 32.626 2.7738 32.626 2.24014 32.0767C1.17282 31.5273 -0.428147 32.0767 0.105513 33.7247C1.17283 37.0209 2.24014 40.3171 2.24014 44.1626C2.24014 45.2613 2.77379 45.8107 3.84111 45.2613C4.37477 44.712 4.90844 43.6132 4.90844 43.0639C4.90844 41.9651 4.90845 41.9651 5.44211 43.0639C10.245 57.3472 25.7212 57.3472 30.5241 43.0639C31.0578 41.9651 30.5241 42.5145 31.0578 43.0639C31.0578 44.1626 31.5914 44.712 32.1251 45.2613C33.1924 45.8107 33.7261 45.2613 33.7261 44.1626C34.2597 40.8664 34.7934 37.0209 35.8607 33.7247C36.3943 32.626 35.327 31.5273 33.7261 32.0767C33.1924 32.0767 33.1924 32.626 32.6587 33.1754C32.6587 33.7247 32.6587 33.7248 32.6587 32.626C32.6587 30.978 32.1251 29.3299 31.5914 27.6818C29.4568 23.8363 26.2548 22.7376 23.0529 23.8363C18.7836 25.4844 17.7163 25.4844 13.447 24.3856ZM15.5816 47.4587C15.048 46.9094 15.048 46.9094 15.5816 46.36C17.7163 45.8107 18.7836 45.8107 20.9182 46.36C21.9855 46.36 21.9855 46.9094 20.9182 47.4587C19.3172 48.5574 17.1826 48.5574 15.5816 47.4587ZM15.048 43.0639V42.5145H15.5816C17.1826 44.1626 19.3173 44.1626 20.3846 42.5145H20.9182V43.0639C19.8509 45.2613 16.649 45.2613 15.048 43.0639ZM15.5816 30.9779C15.5816 27.6818 20.9182 27.6818 20.9182 30.9779C20.9182 34.2741 15.5816 34.2741 15.5816 30.9779ZM21.9855 35.3728C23.5865 34.2741 25.1875 34.2741 27.8558 34.8235C28.9231 35.3728 29.4568 35.3728 28.3895 35.9222C26.2548 37.0209 23.5865 36.4715 22.5192 35.9222C21.4519 35.9222 21.4519 35.9222 21.9855 35.3728ZM13.9807 35.3728C12.3797 34.2741 10.7787 34.2741 8.11041 34.8235C7.04309 35.3728 6.50942 35.3728 7.57674 35.9222C9.71137 37.0209 12.3797 36.4715 13.447 35.9222C15.048 35.9222 15.048 35.9222 13.9807 35.3728Z" fill="#6D1D1D"/>
</svg>
