<svg width="48" height="51" viewBox="0 0 48 51" fill="none" xmlns="http://www.w3.org/2000/svg">
<path fill-rule="evenodd" clip-rule="evenodd" d="M27.1995 26.1104C27.1995 30.5953 20.7995 30.5953 20.7995 26.1104C20.7995 21.6255 27.1995 21.0649 27.1995 26.1104ZM13.8662 43.4894C12.2662 42.3682 10.6662 41.2469 9.06618 39.5651H8.53284C7.46618 40.6863 6.93284 41.8075 5.86618 42.3682C5.86618 42.9288 5.86618 42.9288 5.86618 43.4894C7.99951 44.6106 9.06618 45.7318 10.6662 46.8531C11.1995 46.8531 11.1995 46.8531 11.7328 46.8531C12.2662 45.7318 13.3328 45.1712 13.8662 43.4894C14.3995 43.4894 14.3995 43.4894 13.8662 43.4894ZM34.1328 43.4894C35.7328 42.3682 37.3328 41.2469 38.9328 39.5651H39.4662C39.9995 40.1257 41.0662 41.2469 41.5995 42.3682C41.5995 42.9288 41.5995 42.9288 41.5995 43.4894C39.9995 44.6106 38.9328 45.7318 37.3328 47.4137C36.7995 47.4137 36.7995 47.4137 36.2662 47.4137C35.7328 45.7318 34.6662 45.1712 34.1328 43.4894C33.5995 43.4894 33.5995 43.4894 34.1328 43.4894ZM20.7995 45.7318C22.9328 46.2924 25.0662 46.2924 26.6662 45.7318C26.6662 45.7318 27.1995 45.7318 27.1995 46.2924C27.1995 47.4137 27.1995 49.0955 27.1995 50.2167C27.1995 50.7773 26.6662 50.7773 26.6662 50.7773C25.0662 50.7773 22.9328 50.7773 21.3328 50.7773C20.7995 50.7773 20.7995 50.2167 20.7995 50.2167C20.7995 49.0955 20.7995 47.4137 20.7995 45.7318ZM13.8662 8.17077C12.2662 9.292 10.6662 10.4132 9.06618 12.0951H8.53284C7.46618 10.9738 6.93284 9.85261 5.86618 9.292C5.86618 8.73139 5.86618 8.73139 5.86618 8.17077C7.46618 7.04955 8.53285 5.92834 10.1328 4.2465C10.6662 4.2465 10.6662 4.2465 11.1995 4.2465C12.2662 5.36773 12.7995 6.48895 13.8662 7.04956C14.3995 8.17079 14.3995 8.17077 13.8662 8.17077ZM4.79951 22.7467C4.26618 24.9892 4.26618 27.2316 4.79951 28.9134C4.79951 28.9134 4.79951 29.4741 4.26618 29.4741C3.19951 29.4741 1.59951 29.4741 0.532845 29.4741C-0.000488341 29.4741 -0.000488281 28.9134 -0.000488281 28.9134C-0.000488281 27.2316 -0.000488281 24.9892 -0.000488281 23.3073C-0.000488281 22.7467 0.532845 22.7467 0.532845 22.7467C2.13285 22.1861 3.19951 22.1861 4.79951 22.7467C4.79951 22.1861 4.79951 22.1861 4.79951 22.7467ZM34.1328 8.17077C35.7328 9.292 37.3328 10.4132 38.9328 12.0951H39.4662C40.5328 10.9738 41.0662 9.85261 42.1328 9.292C42.1328 8.73139 42.1328 8.73139 42.1328 8.17077C40.5328 7.04955 39.4662 5.92834 37.8662 4.2465C37.3328 4.2465 37.3328 4.2465 36.7995 4.2465C35.7328 5.92834 34.6662 7.04956 34.1328 7.61017C33.5995 8.17078 33.5995 8.17077 34.1328 8.17077ZM43.1995 22.7467C43.7328 24.9892 43.7328 27.2316 43.1995 28.9134C43.1995 28.9134 43.1995 29.4741 43.7328 29.4741C44.7995 29.4741 46.3995 29.4741 47.4662 29.4741C47.9995 29.4741 47.9995 28.9134 47.9995 28.9134C47.9995 27.2316 47.9995 24.9892 47.9995 23.3073C47.9995 22.7467 47.4662 22.7467 47.4662 22.7467C46.3995 22.1861 44.7995 22.1861 43.1995 22.7467C43.1995 22.1861 43.1995 22.1861 43.1995 22.7467ZM20.7995 5.92833C22.9328 5.36772 25.0662 5.36772 26.6662 5.92833C26.6662 5.92833 27.1995 5.92832 27.1995 5.36771C27.1995 4.24648 27.1995 2.56466 27.1995 1.44344C27.1995 0.882825 26.6662 0.882812 26.6662 0.882812C25.0662 0.882812 22.9328 0.882812 21.3328 0.882812C20.7995 0.882812 20.7995 1.44344 20.7995 1.44344C20.7995 2.56466 20.7995 4.2465 20.7995 5.92833ZM28.7995 34.5196C30.3995 35.6408 31.4662 36.2014 32.5328 36.2014C32.5328 36.2014 32.5328 36.2014 32.5328 36.762C30.3995 38.4439 28.2662 39.5651 25.5995 40.1257C25.5995 40.1257 25.0662 40.1257 25.5995 39.5651C26.6662 39.0045 27.1995 37.3226 27.1995 35.6408C27.1995 29.4741 21.3328 29.4741 21.3328 35.6408C21.3328 37.3226 21.8662 39.0045 22.9328 39.5651V40.1257C20.2662 39.5651 17.5995 38.4439 15.4662 36.762V36.2014C16.5328 36.2014 18.1328 35.6408 19.1995 34.5196C22.9328 30.0347 18.6662 26.1104 14.9328 30.0347C13.8662 31.1559 13.3328 32.8377 13.3328 33.959C13.3328 33.959 13.3328 33.959 12.7995 33.959C11.7328 32.2771 10.6662 30.0347 10.1328 27.7922C10.1328 27.7922 10.1328 27.2316 10.6662 27.7922C11.7328 28.3528 12.7995 28.9134 14.3995 28.9134C20.2662 28.3528 19.7328 22.7467 13.8662 22.7467C12.2662 22.7467 11.1995 23.3073 10.1328 24.4285H9.59951C10.1328 21.6255 11.1995 18.8224 12.7995 16.58H13.3328C13.3328 17.7012 13.8662 19.383 14.9328 20.5043C19.7328 24.9892 23.9995 21.0649 19.7328 16.58C18.6662 15.4587 17.5995 14.8981 15.9995 14.8981C15.9995 14.8981 15.9995 14.8981 15.9995 14.3375C17.5995 13.2163 19.7328 12.0951 21.8662 12.0951C21.8662 12.0951 22.3995 12.0951 21.8662 12.6557C20.7995 13.2163 20.2662 14.8981 20.2662 16.58C20.2662 22.7467 26.1328 22.7467 26.1328 16.58C26.1328 14.8981 25.5995 13.2163 24.5328 12.6557V12.0951C26.6662 12.0951 28.7995 13.2163 30.3995 14.3375V14.8981C29.3328 14.8981 27.7328 15.4587 26.6662 16.58C22.9328 21.0649 27.1995 24.9892 30.9328 20.5043C31.9995 19.383 32.5328 17.7012 32.5328 16.58C32.5328 16.58 32.5328 16.58 33.0662 16.58C34.6662 18.8224 36.2662 21.0649 36.2662 24.4285C36.2662 24.4285 36.2662 24.4285 35.7328 24.4285C34.6662 23.3073 33.5995 23.3073 31.9995 23.3073C26.1328 23.8679 26.6662 29.4741 32.5328 29.4741C34.1328 29.4741 35.1995 28.9134 36.2662 27.7922H36.7995C36.7995 30.0347 35.7328 32.2771 34.6662 34.5196H34.1328C34.1328 33.3983 33.5995 32.2771 32.5328 31.1559C29.3328 26.1104 25.0662 30.0347 28.7995 34.5196ZM23.9995 7.04956C33.5995 7.04956 41.5995 15.4587 41.5995 25.5498C41.5995 35.6408 33.5995 44.05 23.9995 44.05C14.3995 44.05 6.39951 35.6408 6.39951 25.5498C6.39951 15.4587 14.3995 7.04956 23.9995 7.04956Z" fill="#6D1D1D"/>
</svg>
