<svg width="40" height="54" viewBox="0 0 40 54" fill="none" xmlns="http://www.w3.org/2000/svg">
<path fill-rule="evenodd" clip-rule="evenodd" d="M7.20083 15.5518C7.20083 15.0022 7.20083 14.4526 7.20083 13.903C7.20083 12.8038 7.20082 12.2542 6.11466 12.2542C4.48542 11.155 5.0285 8.40707 5.0285 5.65908C5.0285 0.71271 15.347 -1.4857 17.5193 4.01028C18.0624 4.55987 18.0624 5.65908 18.0624 6.20867C18.0624 6.75827 18.6055 7.30786 18.6055 7.85746C18.6055 8.95666 19.1486 10.0559 19.6917 10.6054C20.2347 11.155 19.6917 11.7046 19.1486 11.7046C18.6055 11.7046 18.6055 11.7046 18.0624 12.2542C17.5193 13.903 17.5193 15.5518 15.347 15.5518C14.8039 15.5518 14.2609 15.5518 13.7178 15.5518C13.7178 15.5518 13.1747 15.5518 13.1747 16.1014C13.1747 17.2006 13.1747 18.2998 13.1747 18.8494C13.1747 19.9486 13.1747 19.399 12.6316 18.8494C11.0024 17.2006 9.37314 16.651 7.7439 16.1014C7.20082 16.651 7.20083 16.1014 7.20083 15.5518ZM35.441 19.399C35.984 18.2998 36.5271 18.2998 37.0702 19.399C38.1564 20.4982 38.6994 21.0478 39.2425 21.5974C40.3287 22.147 40.3287 22.6966 38.6994 22.6966C38.1564 22.6966 37.0702 22.6966 36.5271 22.6966C34.8979 22.147 34.3548 21.0478 35.441 19.399ZM5.57158 27.0934C5.57158 23.2462 9.37314 21.5974 12.0885 24.895C13.1747 26.5438 13.7178 28.1926 14.2609 30.391C15.8901 32.5893 15.347 35.8869 15.8901 38.0853C16.4332 39.7341 16.4332 38.6349 16.9763 38.0853C18.6055 36.4365 20.7778 35.8869 22.4071 34.2381C24.0363 32.5893 26.2086 31.4901 27.8379 29.8414C28.3809 28.7422 28.924 27.0934 29.4671 25.4446C30.0102 24.3454 30.5533 22.6966 31.0963 21.0478C31.0963 19.9486 31.6394 18.8494 32.7256 18.2998C33.8117 17.2006 34.3548 16.1014 35.441 15.0022C36.5271 13.903 37.0702 15.0022 37.0702 16.1014C36.5271 17.2006 35.984 17.7502 35.441 18.8494C34.8979 19.399 34.8979 19.9486 34.8979 21.0478C34.8979 22.6966 34.8979 23.7958 34.8979 25.4446C34.8979 26.5438 34.8979 26.5438 35.441 25.9942C35.984 25.4446 36.5271 24.3454 37.6133 24.3454C39.2425 23.7958 40.3287 24.895 38.6994 25.9942C37.6133 26.5438 37.0702 27.643 35.984 29.2918C35.441 30.391 34.8979 30.9405 33.8117 31.4901C27.2948 35.3373 22.4071 40.8333 18.0624 46.3293C17.5193 47.4285 15.8901 47.9781 14.8039 48.5277C13.1747 49.0773 11.5455 48.5277 11.0024 46.8789C10.4593 45.7797 10.4593 44.6805 9.91622 43.5813C7.74391 41.9325 7.20083 38.6349 7.20083 35.3373C7.20083 34.2381 7.20082 33.1389 6.65774 32.0397C5.57158 29.8414 5.57158 28.7422 5.57158 27.0934ZM6.11466 19.9486C7.7439 18.2998 9.91622 18.2998 12.0885 19.9486C14.8039 22.147 16.9763 24.3454 19.6917 26.5438C19.6917 26.5438 19.6917 26.5438 19.6917 27.0934C19.6917 29.2918 20.2347 31.4901 20.2347 33.6885C20.2347 35.3373 20.2347 34.7877 19.1486 35.3373C18.0624 35.8869 17.5193 36.4365 16.9763 36.9861C15.8901 38.0853 15.8901 38.0853 15.8901 36.4365C15.8901 35.8869 15.8901 34.7877 15.8901 34.2381C15.8901 33.1389 15.347 32.0397 14.8039 30.9405L14.2609 30.391C13.7178 28.1926 13.1747 26.5438 12.0885 24.895C10.4593 23.2462 8.83006 22.6966 6.65774 23.2462C3.39927 24.895 3.94234 29.8414 5.0285 32.0397C5.57158 33.1389 5.57158 33.6885 5.57158 34.7877C5.57158 38.0853 6.65774 41.3829 8.83006 43.5813C9.37314 44.6805 9.37314 45.7797 9.91622 46.8789C10.4593 49.0773 12.6316 49.6269 14.8039 49.0773C15.8901 48.5277 17.5193 47.9781 18.6055 46.8789C19.1486 45.7797 20.2347 45.2301 20.7778 44.6805C21.864 43.5813 21.3209 43.5813 21.864 44.6805C21.864 45.2301 22.4071 45.2301 22.4071 45.7797V46.3293C21.3209 47.9781 20.2347 49.0773 19.1486 49.6269C18.0624 50.7261 18.0624 50.726 19.1486 50.1765C20.2347 49.6269 21.864 49.0773 22.9501 48.5277H23.4932C23.4932 49.0773 24.0363 49.6269 24.0363 50.1765C24.5794 51.2756 24.0363 51.8253 23.4932 52.3748C18.0624 54.0236 12.0885 54.0236 6.11466 53.474C4.48542 53.474 3.94235 51.8252 3.94235 50.1765C3.94235 46.3293 3.39927 42.4821 1.77003 38.0853C0.683869 35.8869 0.140783 33.1389 0.140783 30.9405C-0.402297 28.1926 0.683861 25.9942 2.3131 24.3454C3.94234 22.147 5.0285 21.0478 6.11466 19.9486Z" fill="#6D1D1D"/>
</svg>
