<svg width="13" height="12" viewBox="0 0 13 12" fill="none" xmlns="http://www.w3.org/2000/svg">
<path d="M2.95868 6.22981C3.07991 6.1089 3.24414 6.041 3.41535 6.041C3.58657 6.041 3.75079 6.1089 3.87202 6.22981C3.9319 6.28963 3.97941 6.36066 4.01183 6.43884C4.04425 6.51703 4.06093 6.60084 4.06093 6.68548C4.06093 6.77012 4.04425 6.85393 4.01183 6.93212C3.97941 7.0103 3.9319 7.08134 3.87202 7.14115L2.50202 8.50915C2.38214 8.62878 2.28704 8.77088 2.22215 8.92732C2.15726 9.08376 2.12386 9.25145 2.12386 9.42081C2.12386 9.59017 2.15726 9.75787 2.22215 9.91431C2.28704 10.0707 2.38214 10.2128 2.50202 10.3325C2.74447 10.5743 3.07292 10.7101 3.41535 10.7101C3.75778 10.7101 4.08623 10.5743 4.32868 10.3325L7.52468 7.14115C7.58457 7.08134 7.63208 7.0103 7.6645 6.93212C7.69691 6.85393 7.7136 6.77012 7.7136 6.68548C7.7136 6.60084 7.69691 6.51703 7.6645 6.43884C7.63208 6.36066 7.58457 6.28963 7.52468 6.22981C7.4647 6.16999 7.4171 6.09892 7.38463 6.02067C7.35215 5.94242 7.33544 5.85853 7.33544 5.77381C7.33544 5.68909 7.35215 5.60521 7.38463 5.52696C7.4171 5.44871 7.4647 5.37764 7.52468 5.31781C7.64591 5.1969 7.81014 5.129 7.98135 5.129C8.15257 5.129 8.31679 5.1969 8.43802 5.31781C8.61788 5.49727 8.76058 5.71045 8.85794 5.94513C8.95531 6.17982 9.00542 6.4314 9.00542 6.68548C9.00542 6.93956 8.95531 7.19114 8.85794 7.42583C8.76058 7.66051 8.61788 7.87369 8.43802 8.05315L5.24135 11.2445C4.75654 11.7283 4.0996 12 3.41468 12C2.72977 12 2.07283 11.7283 1.58802 11.2445C1.34827 11.0052 1.15806 10.721 1.02828 10.4081C0.898497 10.0953 0.831696 9.75987 0.831696 9.42115C0.831696 9.08243 0.898497 8.74703 1.02828 8.43416C1.15806 8.12129 1.34827 7.83708 1.58802 7.59781L2.95868 6.22915V6.22981ZM10.7054 5.76981C10.5841 5.89072 10.4199 5.95862 10.2487 5.95862C10.0775 5.95862 9.91324 5.89072 9.79202 5.76981C9.73213 5.71 9.68462 5.63897 9.6522 5.56078C9.61979 5.4826 9.6031 5.39879 9.6031 5.31415C9.6031 5.22951 9.61979 5.1457 9.6522 5.06751C9.68462 4.98932 9.73213 4.91829 9.79202 4.85848L11.162 3.49048C11.2819 3.37084 11.377 3.22874 11.4419 3.07231C11.5068 2.91587 11.5402 2.74817 11.5402 2.57881C11.5402 2.40945 11.5068 2.24176 11.4419 2.08532C11.377 1.92888 11.2819 1.78678 11.162 1.66715C10.9196 1.42533 10.5911 1.28953 10.2487 1.28953C9.90625 1.28953 9.5778 1.42533 9.33535 1.66715L6.14002 4.85848C6.08013 4.91829 6.03262 4.98932 6.0002 5.06751C5.96779 5.1457 5.9511 5.22951 5.9511 5.31415C5.9511 5.39879 5.96779 5.4826 6.0002 5.56078C6.03262 5.63897 6.08013 5.71 6.14002 5.76981C6.2 5.82964 6.2476 5.90071 6.28007 5.97896C6.31255 6.05721 6.32926 6.14109 6.32926 6.22581C6.32926 6.31053 6.31255 6.39442 6.28007 6.47267C6.2476 6.55092 6.2 6.62199 6.14002 6.68181C6.01879 6.80272 5.85457 6.87062 5.68335 6.87062C5.51214 6.87062 5.34791 6.80272 5.22668 6.68181C5.04682 6.50235 4.90412 6.28918 4.80676 6.05449C4.70939 5.81981 4.65928 5.56823 4.65928 5.31415C4.65928 5.06007 4.70939 4.80848 4.80676 4.5738C4.90412 4.33911 5.04682 4.12594 5.22668 3.94648L8.42335 0.755146C8.90816 0.271345 9.5651 -0.000366211 10.25 -0.000366211C10.9349 -0.000366211 11.5919 0.271345 12.0767 0.755146C12.3164 0.994417 12.5066 1.27862 12.6364 1.59149C12.7662 1.90436 12.833 2.23976 12.833 2.57848C12.833 2.9172 12.7662 3.25259 12.6364 3.56547C12.5066 3.87834 12.3164 4.16254 12.0767 4.40181L10.7054 5.77048V5.76981Z" fill="white"/>
</svg>
