<svg width="75" height="75" viewBox="0 0 75 75" fill="none" xmlns="http://www.w3.org/2000/svg">
<path d="M37.5 75C58.2107 75 75 58.2107 75 37.5C75 16.7893 58.2107 0 37.5 0C16.7893 0 0 16.7893 0 37.5C0 58.2107 16.7893 75 37.5 75Z" fill="#00923F"/>
<path d="M37.5 2.57031C32.913 2.57031 28.3709 3.47379 24.133 5.22916C19.8952 6.98454 16.0446 9.55743 12.8011 12.8009C9.55756 16.0445 6.98466 19.8951 5.22929 24.1329C3.47391 28.3708 2.57043 32.9129 2.57043 37.4999C2.57043 42.0869 3.47391 46.629 5.22929 50.8669C6.98466 55.1047 9.55756 58.9553 12.8011 62.1989C16.0446 65.4424 19.8952 68.0153 24.133 69.7706C28.3709 71.526 32.913 72.4295 37.5 72.4295C42.087 72.4295 46.6292 71.526 50.867 69.7706C55.1049 68.0153 58.9555 65.4424 62.199 62.1989C65.4425 58.9553 68.0154 55.1047 69.7708 50.8669C71.5261 46.629 72.4296 42.0869 72.4296 37.4999C72.4296 32.9129 71.5261 28.3708 69.7708 24.1329C68.0154 19.8951 65.4425 16.0445 62.199 12.8009C58.9555 9.55744 55.1049 6.98454 50.867 5.22916C46.6292 3.47379 42.087 2.57031 37.5 2.57031ZM37.5 4.3445C41.8541 4.3445 46.1655 5.20208 50.1881 6.8683C54.2107 8.53451 57.8657 10.9767 60.9445 14.0555C64.0232 17.1342 66.4654 20.7893 68.1316 24.8119C69.7978 28.8345 70.6554 33.1459 70.6554 37.4999C70.6554 41.8539 69.7978 46.1653 68.1316 50.1879C66.4654 54.2105 64.0232 57.8656 60.9445 60.9443C57.8657 64.0231 54.2107 66.4653 50.1881 68.1315C46.1655 69.7977 41.8541 70.6553 37.5 70.6553C33.146 70.6553 28.8346 69.7977 24.812 68.1315C20.7894 66.4653 17.1344 64.0231 14.0556 60.9443C10.9768 57.8656 8.53463 54.2105 6.86842 50.1879C5.20221 46.1653 4.34462 41.8539 4.34462 37.4999C4.34462 33.1459 5.20221 28.8345 6.86842 24.8119C8.53463 20.7893 10.9768 17.1342 14.0556 14.0555C17.1344 10.9767 20.7894 8.53451 24.812 6.8683C28.8346 5.20208 33.146 4.3445 37.5 4.3445Z" fill="white"/>
<path d="M37.5 16.3936C34.7282 16.3936 31.9836 16.9395 29.4228 18.0002C26.8621 19.0609 24.5353 20.6156 22.5753 22.5755C20.6154 24.5355 19.0607 26.8622 18 29.423C16.9393 31.9838 16.3934 34.7284 16.3934 37.5002C16.3934 40.2719 16.9393 43.0165 18 45.5773C19.0607 48.1381 20.6154 50.4649 22.5753 52.4248C24.5353 54.3847 26.8621 55.9394 29.4228 57.0001C31.9836 58.0608 34.7282 58.6068 37.5 58.6068C40.2717 58.6068 43.0164 58.0608 45.5771 57.0001C48.1379 55.9394 50.4647 54.3847 52.4246 52.4248C54.3845 50.4649 55.9392 48.1381 57 45.5773C58.0607 43.0165 58.6066 40.2719 58.6066 37.5002C58.6066 34.7284 58.0607 31.9838 57 29.423C55.9392 26.8622 54.3845 24.5355 52.4246 22.5755C50.4647 20.6156 48.1379 19.0609 45.5771 18.0002C43.0164 16.9395 40.2717 16.3936 37.5 16.3936ZM37.5 18.9449C39.9367 18.9449 42.3496 19.4248 44.6008 20.3573C46.852 21.2898 48.8975 22.6566 50.6206 24.3796C52.3436 26.1026 53.7104 28.1481 54.6428 30.3994C55.5753 32.6506 56.0553 35.0634 56.0553 37.5002C56.0553 39.9369 55.5753 42.3497 54.6428 44.601C53.7104 46.8522 52.3436 48.8977 50.6206 50.6207C48.8975 52.3438 46.852 53.7105 44.6008 54.643C42.3496 55.5755 39.9367 56.0555 37.5 56.0555C35.0633 56.0555 32.6504 55.5755 30.3992 54.643C28.1479 53.7105 26.1024 52.3438 24.3794 50.6207C22.6564 48.8977 21.2896 46.8522 20.3571 44.601C19.4246 42.3497 18.9447 39.9369 18.9447 37.5002C18.9447 35.0634 19.4246 32.6506 20.3571 30.3994C21.2896 28.1481 22.6564 26.1026 24.3794 24.3796C26.1024 22.6566 28.1479 21.2898 30.3992 20.3573C32.6504 19.4248 35.0633 18.9449 37.5 18.9449Z" fill="white"/>
<path d="M37.5327 20.7085C37.5327 20.7085 37.5258 20.7367 37.5144 20.7764C37.5056 20.7446 37.5 20.7221 37.5 20.7221V20.8249C37.4291 21.0432 37.2246 21.5327 36.7172 21.9824C36.0387 22.5838 33.2478 23.8637 32.9086 24.2491C32.5693 24.6346 32.3689 25.0664 32.3689 25.0664C32.3689 25.0664 31.9219 24.9028 31.4095 24.8701C30.897 24.8374 28.0185 25.9059 27.1136 25.9604C26.2086 26.0149 25.6361 25.6362 25.6361 25.6362C25.6361 25.6362 26.0148 26.2088 25.9603 27.1137C25.9058 28.0187 24.8373 30.8971 24.87 31.4096C24.9027 31.922 25.0662 32.3691 25.0662 32.3691L25.0989 32.3825L25.0798 32.4017C25.0798 32.4017 24.648 32.6022 24.2626 32.9414C23.8771 33.2807 22.5972 36.0715 21.9959 36.7499C21.6006 37.1959 21.1758 37.4072 20.9302 37.5001H20.7219C20.7219 37.5001 20.7647 37.509 20.8383 37.5329C20.7648 37.5568 20.7219 37.5656 20.7219 37.5656H20.9302C21.1758 37.6585 21.6006 37.8697 21.9959 38.3157C22.5972 38.9941 23.8771 41.785 24.2626 42.1243C24.6205 42.4393 25.0038 42.6273 25.0588 42.6535C25.0384 42.7111 24.9004 43.1149 24.87 43.5907C24.8373 44.1031 25.9058 46.9816 25.9603 47.8866C26.0148 48.7915 25.6361 49.3641 25.6361 49.3641C25.6361 49.3641 26.2086 48.9853 27.1136 49.0399C28.0185 49.0944 30.897 50.1629 31.4095 50.1302C31.9219 50.0974 32.3689 49.9339 32.3689 49.9339C32.3689 49.9339 32.5693 50.3657 32.9086 50.7512C33.2478 51.1366 36.0387 52.4165 36.7172 53.0178C37.2246 53.4676 37.4291 53.9571 37.5 54.1754V54.2782C37.5 54.2782 37.5056 54.2556 37.5144 54.2239C37.5258 54.2636 37.5327 54.2918 37.5327 54.2918V54.162C37.6035 53.9438 37.808 53.4542 38.3155 53.0043C38.994 52.4029 41.7849 51.1231 42.1241 50.7376C42.4391 50.3796 42.6271 49.9963 42.6534 49.9414C42.711 49.9617 43.1148 50.0998 43.5906 50.1302C44.103 50.1629 46.9815 49.0944 47.8864 49.0399C48.7914 48.9853 49.3639 49.3641 49.3639 49.3641C49.3639 49.3641 48.9852 48.7915 49.0397 47.8866C49.0942 46.9816 50.1627 44.1031 50.13 43.5907C50.0973 43.0783 49.9338 42.6312 49.9338 42.6312C49.9338 42.6312 50.3655 42.4308 50.751 42.0916C51.1365 41.7524 52.4164 38.9615 53.0177 38.283C53.413 37.8371 53.8378 37.6258 54.0834 37.5328H54.2917C54.2917 37.5328 54.2488 37.524 54.1752 37.5001C54.2488 37.4762 54.2917 37.4675 54.2917 37.4675H54.0834C53.8378 37.3745 53.413 37.1632 53.0177 36.7173C52.4164 36.0388 51.1365 33.2479 50.751 32.9087C50.3655 32.5695 49.9338 32.3691 49.9338 32.3691C49.9338 32.3691 50.0973 31.922 50.13 31.4096C50.1627 30.8971 49.0942 28.0187 49.0397 27.1137C48.9852 26.2088 49.3639 25.6362 49.3639 25.6362C49.3639 25.6362 48.7914 26.0149 47.8864 25.9604C46.9815 25.9059 44.103 24.8374 43.5906 24.8701C43.1148 24.9005 42.711 25.0386 42.6534 25.0589C42.6271 25.004 42.4391 24.6207 42.1241 24.2627C41.7849 23.8772 38.994 22.5974 38.3155 21.996C37.808 21.5461 37.6035 21.0565 37.5327 20.8383V20.7085ZM37.5001 30.8192C38.3775 30.8192 39.2462 30.992 40.0568 31.3278C40.8674 31.6635 41.6039 32.1556 42.2243 32.776C42.8447 33.3964 43.3368 34.1329 43.6726 34.9435C44.0083 35.754 44.1811 36.6228 44.1811 37.5001C44.1811 38.3775 44.0083 39.2463 43.6726 40.0568C43.3368 40.8674 42.8447 41.6039 42.2243 42.2243C41.6039 42.8447 40.8674 43.3368 40.0568 43.6725C39.2462 44.0083 38.3775 44.1811 37.5001 44.1811C35.7282 44.1811 34.0289 43.4772 32.776 42.2243C31.5231 40.9713 30.8192 39.272 30.8192 37.5001C30.8192 35.7283 31.5231 34.029 32.776 32.776C34.0289 31.5231 35.7282 30.8192 37.5001 30.8192Z" fill="white"/>
<path d="M14.8564 49.4756C14.5122 49.4756 14.1714 49.5434 13.8534 49.6751C13.5354 49.8068 13.2465 49.9998 13.0032 50.2432C12.7598 50.4866 12.5667 50.7755 12.435 51.0935C12.3033 51.4115 12.2355 51.7523 12.2355 52.0964C12.2356 52.7915 12.5117 53.4581 13.0032 53.9496C13.4947 54.4411 14.1613 54.7172 14.8564 54.7172C15.5515 54.7172 16.2181 54.4411 16.7096 53.9496C17.2011 53.4581 17.4772 52.7915 17.4772 52.0964C17.4772 51.7523 17.4094 51.4115 17.2777 51.0935C17.146 50.7755 16.953 50.4866 16.7096 50.2432C16.4662 49.9998 16.1773 49.8068 15.8593 49.6751C15.5414 49.5434 15.2006 49.4756 14.8564 49.4756ZM14.8564 49.8657C14.9826 49.8657 15.1037 49.9159 15.193 50.0051C15.2822 50.0944 15.3324 50.2155 15.3324 50.3417C15.3324 50.4043 15.3201 50.4662 15.2962 50.5239C15.2723 50.5817 15.2372 50.6342 15.193 50.6784C15.1488 50.7226 15.0963 50.7577 15.0386 50.7816C14.9808 50.8055 14.9189 50.8179 14.8564 50.8179C14.7939 50.8179 14.7319 50.8056 14.6742 50.7816C14.6164 50.7577 14.5639 50.7226 14.5197 50.6784C14.4755 50.6342 14.4404 50.5817 14.4165 50.5239C14.3926 50.4662 14.3802 50.4043 14.3803 50.3417C14.3803 50.2792 14.3926 50.2173 14.4165 50.1596C14.4404 50.1018 14.4755 50.0493 14.5197 50.0051C14.5639 49.9609 14.6164 49.9258 14.6742 49.9019C14.732 49.878 14.7939 49.8657 14.8564 49.8657ZM13.4655 50.5365C13.5917 50.5366 13.7128 50.5867 13.8021 50.676C13.8913 50.7652 13.9415 50.8863 13.9415 51.0126C13.9415 51.0751 13.9292 51.137 13.9053 51.1948C13.8814 51.2525 13.8463 51.305 13.8021 51.3492C13.7579 51.3934 13.7054 51.4285 13.6477 51.4524C13.5899 51.4764 13.528 51.4887 13.4655 51.4887C13.403 51.4887 13.341 51.4764 13.2833 51.4525C13.2255 51.4285 13.173 51.3935 13.1288 51.3493C13.0846 51.305 13.0495 51.2526 13.0256 51.1948C13.0017 51.137 12.9893 51.0751 12.9894 51.0126C12.9894 50.95 13.0017 50.8881 13.0256 50.8304C13.0495 50.7726 13.0846 50.7201 13.1288 50.6759C13.173 50.6317 13.2255 50.5967 13.2833 50.5728C13.3411 50.5488 13.403 50.5365 13.4655 50.5365ZM16.2473 50.5365C16.3098 50.5365 16.3717 50.5488 16.4295 50.5728C16.4872 50.5967 16.5397 50.6317 16.5839 50.6759C16.6281 50.7201 16.6632 50.7726 16.6871 50.8304C16.7111 50.8881 16.7234 50.95 16.7234 51.0126C16.7234 51.0751 16.7111 51.137 16.6872 51.1948C16.6632 51.2526 16.6282 51.305 16.584 51.3493C16.5398 51.3935 16.4873 51.4285 16.4295 51.4525C16.3717 51.4764 16.3098 51.4887 16.2473 51.4887C16.1848 51.4887 16.1229 51.4764 16.0651 51.4524C16.0073 51.4285 15.9549 51.3934 15.9107 51.3492C15.8665 51.305 15.8314 51.2525 15.8075 51.1948C15.7836 51.137 15.7712 51.0751 15.7713 51.0126C15.7713 50.8863 15.8214 50.7652 15.9107 50.676C16 50.5867 16.121 50.5366 16.2473 50.5365ZM14.8564 51.6203C14.9189 51.6203 14.9808 51.6326 15.0386 51.6566C15.0963 51.6805 15.1488 51.7156 15.193 51.7598C15.2372 51.804 15.2723 51.8565 15.2962 51.9142C15.3201 51.972 15.3324 52.0339 15.3324 52.0964C15.3324 52.2227 15.2822 52.3437 15.193 52.433C15.1037 52.5223 14.9826 52.5724 14.8564 52.5725C14.7939 52.5725 14.732 52.5602 14.6742 52.5362C14.6164 52.5123 14.5639 52.4773 14.5197 52.4331C14.4755 52.3888 14.4404 52.3364 14.4165 52.2786C14.3926 52.2209 14.3803 52.1589 14.3803 52.0964C14.3802 52.0339 14.3926 51.972 14.4165 51.9142C14.4404 51.8564 14.4755 51.804 14.5197 51.7597C14.5639 51.7155 14.6164 51.6805 14.6742 51.6565C14.7319 51.6326 14.7939 51.6203 14.8564 51.6203ZM13.2475 51.9106C13.31 51.9106 13.3719 51.9229 13.4297 51.9468C13.4874 51.9707 13.5399 52.0058 13.5841 52.05C13.6283 52.0942 13.6634 52.1466 13.6873 52.2044C13.7113 52.2622 13.7236 52.3241 13.7236 52.3866C13.7236 52.4491 13.7113 52.511 13.6874 52.5688C13.6634 52.6266 13.6284 52.6791 13.5842 52.7233C13.5399 52.7675 13.4874 52.8026 13.4297 52.8265C13.3719 52.8504 13.31 52.8627 13.2475 52.8627C13.1849 52.8627 13.123 52.8504 13.0653 52.8265C13.0075 52.8025 12.955 52.7675 12.9108 52.7232C12.8666 52.679 12.8316 52.6265 12.8077 52.5688C12.7837 52.511 12.7714 52.4491 12.7714 52.3866C12.7714 52.2603 12.8216 52.1393 12.9109 52.05C13.0001 51.9607 13.1212 51.9106 13.2475 51.9106ZM16.4652 51.9106C16.5277 51.9106 16.5896 51.9229 16.6474 51.9468C16.7051 51.9707 16.7576 52.0058 16.8018 52.05C16.8461 52.0942 16.8811 52.1466 16.9051 52.2044C16.929 52.2622 16.9413 52.3241 16.9413 52.3866C16.9413 52.4491 16.929 52.511 16.9051 52.5688C16.8812 52.6266 16.8461 52.6791 16.8019 52.7233C16.7577 52.7675 16.7052 52.8026 16.6474 52.8265C16.5896 52.8504 16.5277 52.8627 16.4652 52.8627C16.4027 52.8627 16.3408 52.8504 16.283 52.8265C16.2253 52.8025 16.1728 52.7675 16.1286 52.7232C16.0844 52.679 16.0493 52.6265 16.0254 52.5688C16.0015 52.511 15.9892 52.4491 15.9892 52.3866C15.9892 52.2603 16.0393 52.1393 16.1286 52.05C16.2179 51.9607 16.3389 51.9106 16.4652 51.9106ZM14.1306 53.2473C14.1931 53.2473 14.255 53.2596 14.3128 53.2835C14.3706 53.3075 14.4231 53.3425 14.4673 53.3867C14.5115 53.431 14.5466 53.4834 14.5705 53.5412C14.5944 53.599 14.6067 53.6609 14.6067 53.7234C14.6067 53.786 14.5944 53.8479 14.5705 53.9056C14.5465 53.9634 14.5115 54.0159 14.4672 54.0601C14.423 54.1043 14.3705 54.1393 14.3128 54.1632C14.255 54.1872 14.1931 54.1995 14.1306 54.1995C14.0043 54.1994 13.8833 54.1493 13.794 54.06C13.7047 53.9707 13.6546 53.8497 13.6546 53.7234C13.6546 53.6609 13.6669 53.599 13.6908 53.5412C13.7147 53.4835 13.7498 53.431 13.794 53.3868C13.8382 53.3426 13.8906 53.3075 13.9484 53.2836C14.0062 53.2596 14.0681 53.2473 14.1306 53.2473ZM15.5822 53.2473C15.6447 53.2473 15.7066 53.2596 15.7644 53.2836C15.8221 53.3075 15.8746 53.3426 15.9188 53.3868C15.963 53.431 15.9981 53.4835 16.022 53.5412C16.0459 53.599 16.0582 53.6609 16.0582 53.7234C16.0582 53.8497 16.008 53.9707 15.9188 54.06C15.8295 54.1493 15.7084 54.1994 15.5822 54.1995C15.5197 54.1995 15.4577 54.1872 15.4 54.1632C15.3422 54.1393 15.2897 54.1043 15.2455 54.0601C15.2013 54.0159 15.1662 53.9634 15.1423 53.9056C15.1184 53.8479 15.1061 53.786 15.106 53.7234C15.106 53.6609 15.1183 53.599 15.1423 53.5412C15.1662 53.4834 15.2013 53.431 15.2455 53.3867C15.2897 53.3425 15.3422 53.3075 15.4 53.2835C15.4577 53.2596 15.5196 53.2473 15.5822 53.2473Z" fill="white"/>
<path d="M60.1436 49.4756C59.7994 49.4756 59.4586 49.5434 59.1407 49.6751C58.8227 49.8068 58.5338 49.9998 58.2904 50.2432C58.047 50.4866 57.854 50.7755 57.7223 51.0935C57.5906 51.4115 57.5228 51.7523 57.5228 52.0964C57.5228 52.7915 57.7989 53.4581 58.2904 53.9496C58.7819 54.4411 59.4485 54.7172 60.1436 54.7172C60.8387 54.7172 61.5053 54.4411 61.9968 53.9496C62.4883 53.4581 62.7644 52.7915 62.7645 52.0964C62.7645 51.7523 62.6967 51.4115 62.565 51.0935C62.4332 50.7755 62.2402 50.4866 61.9968 50.2432C61.7535 49.9998 61.4645 49.8068 61.1466 49.6751C60.8286 49.5434 60.4878 49.4756 60.1436 49.4756ZM60.1436 49.8657C60.2699 49.8657 60.3909 49.9159 60.4802 50.0051C60.5695 50.0944 60.6196 50.2155 60.6196 50.3417C60.6196 50.4043 60.6073 50.4662 60.5834 50.5239C60.5595 50.5817 60.5244 50.6342 60.4802 50.6784C60.436 50.7226 60.3836 50.7577 60.3258 50.7816C60.268 50.8055 60.2061 50.8179 60.1436 50.8179C60.0811 50.8179 60.0192 50.8056 59.9614 50.7816C59.9036 50.7577 59.8511 50.7226 59.8069 50.6784C59.7627 50.6342 59.7276 50.5817 59.7037 50.5239C59.6798 50.4662 59.6675 50.4043 59.6675 50.3417C59.6675 50.2792 59.6798 50.2173 59.7037 50.1595C59.7277 50.1018 59.7627 50.0493 59.807 50.0051C59.8512 49.9609 59.9037 49.9258 59.9614 49.9019C60.0192 49.878 60.0811 49.8657 60.1436 49.8657ZM58.7527 50.5365C58.879 50.5366 59 50.5867 59.0893 50.676C59.1786 50.7653 59.2287 50.8863 59.2287 51.0126C59.2287 51.0751 59.2164 51.137 59.1925 51.1948C59.1686 51.2525 59.1335 51.305 59.0893 51.3492C59.0451 51.3934 58.9927 51.4285 58.9349 51.4524C58.8771 51.4764 58.8152 51.4887 58.7527 51.4887C58.6902 51.4887 58.6283 51.4764 58.5705 51.4525C58.5127 51.4285 58.4602 51.3935 58.416 51.3493C58.3718 51.305 58.3367 51.2526 58.3128 51.1948C58.2889 51.137 58.2766 51.0751 58.2766 51.0126C58.2766 50.95 58.2889 50.8881 58.3128 50.8304C58.3368 50.7726 58.3718 50.7202 58.4161 50.6759C58.4603 50.6317 58.5128 50.5967 58.5705 50.5728C58.6283 50.5488 58.6902 50.5365 58.7527 50.5365ZM61.5345 50.5365C61.597 50.5365 61.6589 50.5488 61.7167 50.5728C61.7745 50.5967 61.8269 50.6317 61.8712 50.6759C61.9154 50.7202 61.9505 50.7726 61.9744 50.8304C61.9983 50.8881 62.0106 50.95 62.0106 51.0126C62.0106 51.0751 61.9983 51.137 61.9744 51.1948C61.9505 51.2526 61.9154 51.305 61.8712 51.3493C61.827 51.3935 61.7745 51.4285 61.7167 51.4525C61.659 51.4764 61.597 51.4887 61.5345 51.4887C61.472 51.4887 61.4101 51.4764 61.3523 51.4524C61.2946 51.4285 61.2421 51.3934 61.1979 51.3492C61.1537 51.305 61.1186 51.2525 61.0947 51.1948C61.0708 51.137 61.0585 51.0751 61.0585 51.0126C61.0585 50.8863 61.1087 50.7653 61.1979 50.676C61.2872 50.5867 61.4083 50.5366 61.5345 50.5365ZM60.1436 51.6203C60.2061 51.6203 60.268 51.6326 60.3258 51.6566C60.3836 51.6805 60.436 51.7156 60.4802 51.7598C60.5244 51.804 60.5595 51.8565 60.5834 51.9142C60.6073 51.972 60.6196 52.0339 60.6196 52.0964C60.6196 52.2227 60.5695 52.3437 60.4802 52.433C60.3909 52.5223 60.2699 52.5724 60.1436 52.5725C60.0811 52.5725 60.0192 52.5602 59.9614 52.5362C59.9037 52.5123 59.8512 52.4773 59.807 52.4331C59.7627 52.3888 59.7277 52.3364 59.7037 52.2786C59.6798 52.2209 59.6675 52.1589 59.6675 52.0964C59.6675 52.0339 59.6798 51.972 59.7037 51.9142C59.7276 51.8564 59.7627 51.804 59.8069 51.7597C59.8511 51.7155 59.9036 51.6805 59.9614 51.6565C60.0192 51.6326 60.0811 51.6203 60.1436 51.6203ZM58.5347 51.9106C58.5972 51.9106 58.6591 51.9229 58.7169 51.9468C58.7747 51.9707 58.8271 52.0058 58.8713 52.05C58.9156 52.0942 58.9506 52.1466 58.9746 52.2044C58.9985 52.2622 59.0108 52.3241 59.0108 52.3866C59.0108 52.4491 58.9985 52.511 58.9746 52.5688C58.9507 52.6266 58.9156 52.6791 58.8714 52.7233C58.8272 52.7675 58.7747 52.8026 58.7169 52.8265C58.6591 52.8504 58.5972 52.8627 58.5347 52.8627C58.4722 52.8627 58.4103 52.8504 58.3525 52.8265C58.2948 52.8025 58.2423 52.7675 58.1981 52.7232C58.1539 52.679 58.1188 52.6265 58.0949 52.5688C58.071 52.511 58.0587 52.4491 58.0587 52.3866C58.0587 52.2603 58.1088 52.1393 58.1981 52.05C58.2874 51.9607 58.4085 51.9106 58.5347 51.9106ZM61.7524 51.9106C61.8149 51.9106 61.8769 51.9229 61.9346 51.9468C61.9924 51.9707 62.0449 52.0058 62.0891 52.05C62.1333 52.0942 62.1684 52.1466 62.1923 52.2044C62.2162 52.2622 62.2285 52.3241 62.2286 52.3866C62.2286 52.4491 62.2163 52.511 62.1923 52.5688C62.1684 52.6266 62.1333 52.6791 62.0891 52.7233C62.0449 52.7675 61.9924 52.8026 61.9346 52.8265C61.8769 52.8504 61.815 52.8627 61.7524 52.8627C61.6899 52.8627 61.628 52.8504 61.5702 52.8265C61.5125 52.8025 61.46 52.7675 61.4158 52.7232C61.3716 52.679 61.3365 52.6265 61.3126 52.5688C61.2887 52.511 61.2764 52.4491 61.2764 52.3866C61.2764 52.2603 61.3266 52.1393 61.4158 52.05C61.5051 51.9607 61.6262 51.9106 61.7524 51.9106ZM59.4178 53.2473C59.4804 53.2473 59.5423 53.2596 59.6 53.2835C59.6578 53.3075 59.7103 53.3425 59.7545 53.3867C59.7987 53.431 59.8338 53.4834 59.8577 53.5412C59.8816 53.599 59.894 53.6609 59.8939 53.7234C59.8939 53.786 59.8816 53.8479 59.8577 53.9056C59.8338 53.9634 59.7987 54.0159 59.7545 54.0601C59.7103 54.1043 59.6578 54.1393 59.6 54.1632C59.5422 54.1872 59.4803 54.1995 59.4178 54.1995C59.2916 54.1994 59.1705 54.1493 59.0812 54.06C58.992 53.9708 58.9418 53.8497 58.9418 53.7234C58.9418 53.6609 58.9541 53.599 58.978 53.5412C59.0019 53.4835 59.037 53.431 59.0812 53.3868C59.1254 53.3426 59.1779 53.3075 59.2356 53.2836C59.2934 53.2596 59.3553 53.2473 59.4178 53.2473ZM60.8694 53.2473C60.9319 53.2473 60.9938 53.2596 61.0516 53.2836C61.1093 53.3075 61.1618 53.3426 61.206 53.3868C61.2502 53.431 61.2853 53.4835 61.3092 53.5412C61.3331 53.599 61.3454 53.6609 61.3454 53.7234C61.3454 53.8497 61.2953 53.9708 61.206 54.06C61.1167 54.1493 60.9957 54.1994 60.8694 54.1995C60.8069 54.1995 60.745 54.1872 60.6872 54.1632C60.6295 54.1393 60.577 54.1043 60.5328 54.0601C60.4885 54.0159 60.4535 53.9634 60.4295 53.9056C60.4056 53.8479 60.3933 53.786 60.3933 53.7234C60.3933 53.6609 60.4056 53.599 60.4295 53.5412C60.4534 53.4834 60.4885 53.431 60.5327 53.3867C60.5769 53.3425 60.6294 53.3075 60.6872 53.2835C60.745 53.2596 60.8069 53.2473 60.8694 53.2473Z" fill="white"/>
<path d="M10.38 41.5673C10.1139 41.649 9.94636 41.8093 9.87745 42.0482C9.85409 42.1458 9.8418 42.2578 9.84057 42.3843C9.84611 42.4929 9.86434 42.6278 9.89526 42.7889C9.93586 43.0004 10.023 43.182 10.1566 43.3336C10.2891 43.4854 10.4584 43.5938 10.6647 43.6588C10.872 43.7287 11.0857 43.7661 11.306 43.771C11.5321 43.7798 11.7786 43.7587 12.0455 43.7075C12.2017 43.6775 12.3377 43.6386 12.4535 43.5909C12.5691 43.5419 12.6477 43.5033 12.6894 43.4748C12.7319 43.4501 12.7943 43.4069 12.8769 43.3452C13.0945 43.1771 13.2553 42.955 13.3591 42.6788C13.4064 42.5396 13.4337 42.3961 13.4409 42.248C13.4507 42.1059 13.438 41.9438 13.4031 41.7618L13.3102 41.3971C13.2956 41.3476 13.2737 41.2868 13.2445 41.2146C13.2139 41.1414 13.1819 41.071 13.1485 41.0035L12.1579 41.1936L12.3696 42.2968L11.3126 42.4996L10.808 39.8708L13.7173 39.3125C13.9215 39.8318 14.0982 40.3309 14.2475 40.8098C14.3019 40.9868 14.3588 41.1901 14.4181 41.4197C14.4785 41.6478 14.5251 41.8474 14.5579 42.0183C14.611 42.2951 14.6271 42.5585 14.6063 42.8086C14.5925 43.0624 14.5441 43.3121 14.4612 43.5575C14.308 43.9886 14.0507 44.3619 13.6891 44.6774C13.5206 44.8092 13.3081 44.9411 13.0517 45.0732C12.8111 45.1819 12.5549 45.2623 12.2831 45.3144C11.9056 45.3869 11.5425 45.4018 11.1938 45.359C10.8473 45.321 10.4981 45.2158 10.1463 45.0436C9.46726 44.6881 9.02955 43.9987 8.83317 42.9755C8.7541 42.5635 8.71122 42.2038 8.70452 41.8965C8.70275 41.5883 8.74452 41.301 8.82985 41.0347C8.98987 40.5131 9.40994 40.187 10.09 40.0565L10.38 41.5673Z" fill="white"/>
<path d="M8.43573 38.2697L8.43575 36.7144L13.9978 36.7144L13.9978 38.2698L8.43573 38.2697Z" fill="white"/>
<path d="M8.78088 32.9145L9.13498 31.0697L15.0106 29.9653L14.6859 31.657L13.5484 31.8231L13.1235 34.0368L14.1214 34.5976L13.83 36.1158L8.78088 32.9145ZM12.4202 31.991L10.0121 32.2499L10.0064 32.2794L12.1405 33.4484L12.4202 31.991ZM8.25052 32.6482L7.30884 31.6449L7.60911 30.0806L8.4549 31.5436L8.25052 32.6482Z" fill="white"/>
<path d="M12.7735 28.3666C12.0028 27.9814 11.4665 27.4606 11.1645 26.8043C10.8587 26.153 10.942 25.3546 11.4146 24.4092C11.6346 23.969 11.9227 23.5999 12.2788 23.3019C12.6361 23.0101 13.0749 22.8367 13.5952 22.7817C13.8533 22.761 14.1244 22.7817 14.4084 22.8438C14.6945 22.9126 14.9894 23.0229 15.293 23.1747C15.6593 23.3577 15.9651 23.5708 16.2104 23.8138C16.4546 24.0619 16.6501 24.3542 16.7969 24.6908C16.9409 25.0329 16.9981 25.3947 16.9684 25.7761C16.9438 26.1586 16.8249 26.5633 16.6116 26.9901C16.3798 27.4538 16.1124 27.8165 15.8094 28.0781C15.5087 28.3464 15.1853 28.5284 14.8392 28.6242C14.497 28.7234 14.1484 28.7444 13.7933 28.6874L13.2767 28.5656C13.1115 28.518 12.9437 28.4517 12.7735 28.3666ZM13.4235 26.8771C13.5109 26.9207 13.6038 26.9644 13.7024 27.0081C13.8032 27.0585 13.9435 27.1055 14.1233 27.1492C14.3064 27.1945 14.5027 27.2149 14.7122 27.2104C15.1149 27.1947 15.4195 26.9801 15.6261 26.5668L15.6404 26.5046C15.7249 26.3355 15.7652 26.1694 15.7613 26.0065C15.7607 25.8452 15.7089 25.673 15.6058 25.4898C15.4086 25.1617 15.0625 24.8739 14.5674 24.6264C13.4707 24.0782 12.7343 24.1805 12.358 24.9333C12.3261 24.9971 12.2939 25.0616 12.2614 25.1265C12.2497 25.1837 12.2368 25.2374 12.2228 25.2878C12.2066 25.3427 12.2072 25.4284 12.2245 25.5449C12.2279 25.7426 12.2909 25.9204 12.4136 26.0783C12.5167 26.2278 12.6564 26.3726 12.8329 26.5126L13.1118 26.694L13.4235 26.8771Z" fill="white"/>
<path d="M16.1505 17.6235L17.3031 16.5792L18.7851 18.2149L20.1758 16.9549L18.6938 15.3192L19.8395 14.2812L23.574 18.4032L22.4283 19.4412L20.8934 17.747L19.4916 19.0171L21.0265 20.7112L19.885 21.7454L16.1505 17.6235Z" fill="white"/>
<path d="M23.0195 15.4787C22.6268 14.7118 22.5033 13.9745 22.6489 13.2669C22.7884 12.561 23.3285 11.9672 24.2693 11.4856C24.7074 11.2613 25.1582 11.1346 25.6216 11.1056C26.0824 11.0821 26.5386 11.2024 26.9903 11.4664C27.2105 11.6026 27.4166 11.7799 27.6086 11.9982C27.7984 12.2232 27.9706 12.4867 28.1252 12.7888C28.3118 13.1533 28.432 13.5061 28.4856 13.8473C28.5354 14.1918 28.5197 14.5431 28.4385 14.9012C28.3518 15.2622 28.1835 15.5875 27.9337 15.8772C27.6872 16.1708 27.3517 16.4263 26.927 16.6437C26.4655 16.88 26.0352 17.0137 25.6362 17.045C25.235 17.083 24.8666 17.038 24.531 16.9101C24.1966 16.7873 23.9033 16.5977 23.651 16.3414L23.3069 15.9372C23.202 15.801 23.1062 15.6482 23.0195 15.4787ZM24.4256 14.6639C24.4701 14.7508 24.5191 14.8411 24.5727 14.9347C24.624 15.035 24.7092 15.156 24.8282 15.2977C24.9488 15.4427 25.0949 15.5755 25.2663 15.6959C25.6 15.9218 25.9725 15.9295 26.3839 15.7189L26.4322 15.6773C26.6005 15.5911 26.7314 15.4812 26.8247 15.3476C26.9198 15.2173 26.9801 15.0478 27.0056 14.8393C27.0411 14.4581 26.9328 14.0211 26.6806 13.5284C26.1219 12.4371 25.468 12.0832 24.7189 12.4667C24.6553 12.4993 24.5913 12.5321 24.5266 12.5652C24.4833 12.6042 24.4411 12.6399 24.3999 12.6722C24.3543 12.7068 24.304 12.7762 24.249 12.8803C24.1346 13.0416 24.08 13.2222 24.0853 13.4221C24.0798 13.6036 24.1066 13.803 24.1658 14.0203L24.283 14.3317L24.4256 14.6639ZM22.9165 10.3971L24.0802 9.80127L25.4047 10.3767L24.5068 10.8364L23.7339 10.5758L23.4935 11.3552L22.624 11.8003L22.9165 10.3971ZM26.6335 17.674L27.7972 17.0782L28.2989 18.058L27.1351 18.6538L26.6335 17.674Z" fill="white"/>
<path d="M28.6733 9.79099L30.1675 9.35889L31.7127 14.702L30.2186 15.1341L28.6733 9.79099Z" fill="white"/>
<path d="M35.2545 8.4372L37.8712 8.43555C38.6301 8.43507 39.1862 8.58562 39.5396 8.8872C39.715 9.0311 39.8485 9.21323 39.94 9.43357C40.0328 9.65392 40.0793 9.91311 40.0795 10.2112C40.0798 10.6783 39.9798 11.0421 39.7797 11.3027C39.5807 11.5696 39.3116 11.7545 38.9723 11.8574C38.6292 11.9603 38.263 12.0119 37.8735 12.0121L36.8028 12.0128L36.8039 13.9983L35.258 13.9993L35.2545 8.4372ZM36.8012 9.52008L36.8022 10.9364L37.5573 10.9359C38.1572 10.9356 38.4569 10.6837 38.4566 10.1802C38.4563 9.73943 38.1406 9.51923 37.5094 9.51963L36.8012 9.52008Z" fill="white"/>
<path d="M42.1351 8.69629L43.6443 9.07233L43.1107 11.214L44.9315 11.6677L45.4652 9.52604L46.9653 9.89981L45.6205 15.2969L44.1204 14.9231L44.6731 12.7049L42.8377 12.2475L42.2849 14.4658L40.7903 14.0934L42.1351 8.69629Z" fill="white"/>
<path d="M53.3181 12.3846L52.4372 11.8931L52.2248 11.1056L51.4432 11.3384L50.5902 10.8624L51.9187 10.3281L53.0604 10.9652L53.3181 12.3846ZM51.6795 18.4936L50.1753 17.6543L50.3746 16.5222L48.4062 15.4238L47.5606 16.1952L46.2106 15.4419L50.8352 11.6531L52.4755 12.5684L51.6795 18.4936ZM50.5694 15.3983L51.0796 13.0307L51.0534 13.016L49.2735 14.6752L50.5694 15.3983ZM47.9007 17.3552L49.0423 17.9922L48.5069 18.9518L47.3652 18.3147L47.9007 17.3552Z" fill="white"/>
<path d="M55.5739 14.6021L59.2083 18.0145L58.4665 18.8047L57.1984 17.614L54.1331 20.8788L53.0005 19.8154L56.0658 16.5507L54.832 15.3922L55.5739 14.6021Z" fill="white"/>
<path d="M62.5259 26.281C62.76 26.1304 62.8779 25.9307 62.8796 25.6821C62.8757 25.5818 62.8573 25.4707 62.8242 25.3486C62.7895 25.2455 62.7355 25.1206 62.6621 24.9739C62.5658 24.7812 62.4329 24.63 62.2632 24.5202C62.0946 24.4098 61.9023 24.3513 61.6861 24.3445C61.4677 24.3333 61.2518 24.3551 61.0384 24.41C60.8183 24.4626 60.5867 24.5497 60.3436 24.6711C60.2013 24.7423 60.0809 24.8164 59.9823 24.8937C59.8843 24.9721 59.8191 25.0306 59.7866 25.0693C59.7524 25.1045 59.704 25.1631 59.6412 25.2448C59.4771 25.4655 59.3824 25.7228 59.3572 26.0168C59.3493 26.1635 59.3619 26.3092 59.3949 26.4536C59.424 26.5931 59.48 26.7457 59.5629 26.9115L59.751 27.2375C59.7785 27.2812 59.816 27.3338 59.8636 27.3954C59.9128 27.4576 59.9627 27.5167 60.0131 27.5727L60.9154 27.1217L60.4131 26.1169L61.3759 25.6357L62.5727 28.03L59.923 29.3545C59.5859 28.9097 59.2807 28.4771 59.0075 28.0564C58.9072 27.9007 58.7975 27.7204 58.6782 27.5154C58.5584 27.3121 58.4596 27.1326 58.3817 26.9769C58.2558 26.7248 58.169 26.4756 58.1214 26.2292C58.066 25.9811 58.045 25.7277 58.0585 25.4689C58.0894 25.0125 58.2362 24.5835 58.4989 24.182C58.6255 24.0095 58.7943 23.825 59.0055 23.6285C59.2077 23.4588 59.4326 23.3121 59.6801 23.1883C60.024 23.0165 60.3696 22.9039 60.7168 22.8508C61.0607 22.7937 61.4253 22.8005 61.8106 22.8711C62.5605 23.0297 63.1683 23.5749 63.6342 24.5069C63.8217 24.8822 63.9603 25.2168 64.0499 25.5109C64.135 25.8071 64.1724 26.095 64.1623 26.3745C64.1494 26.9199 63.8332 27.3475 63.2137 27.6571L62.5259 26.281Z" fill="white"/>
<path d="M65.2926 28.9404L65.7102 30.4387L60.3524 31.9321L59.9348 30.4338L65.2926 28.9404Z" fill="white"/>
<path d="M66.393 34.1988L66.5453 36.0711L61.1792 38.707L61.0396 36.9901L62.0911 36.5257L61.9084 34.279L60.7968 34.0057L60.6715 32.4648L66.393 34.1988ZM63.1333 36.0622L65.3844 35.1685L65.382 35.1386L63.013 34.5831L63.1333 36.0622ZM66.9752 34.3135L68.151 35.0283L68.2801 36.616L67.0738 35.4325L66.9752 34.3135Z" fill="white"/>
<path d="M63.7676 39.6405C64.6138 39.8028 65.2709 40.1591 65.7392 40.7093C66.2098 41.2536 66.3455 42.0447 66.1463 43.0827C66.0535 43.5661 65.876 43.9993 65.6138 44.3826C65.3488 44.7602 64.9732 45.0458 64.4872 45.2394C64.2443 45.3292 63.9777 45.3826 63.6876 45.3996C63.3934 45.4107 63.0797 45.3843 62.7464 45.3204C62.3442 45.2432 61.9922 45.1208 61.6903 44.9532C61.3881 44.7804 61.1208 44.5519 60.8884 44.2676C60.6573 43.9771 60.5044 43.6443 60.4297 43.2691C60.35 42.8942 60.355 42.4724 60.4449 42.0038C60.5427 41.4947 60.702 41.0732 60.9229 40.7394C61.1398 40.3998 61.4019 40.137 61.7092 39.9512C62.0118 39.7632 62.3417 39.6486 62.699 39.6075L63.2293 39.585C63.4012 39.5861 63.5807 39.6046 63.7676 39.6405ZM63.5447 41.2503C63.4488 41.2319 63.3475 41.215 63.2408 41.1996C63.1301 41.1783 62.9823 41.171 62.7974 41.1776C62.6088 41.1835 62.4143 41.2169 62.2139 41.2779C61.8305 41.402 61.5953 41.691 61.5082 42.1448L61.5112 42.2085C61.4756 42.3942 61.4817 42.565 61.5296 42.7208C61.5738 42.8759 61.6702 43.0277 61.819 43.1761C62.0976 43.4387 62.5087 43.6221 63.0523 43.7265C64.2563 43.9575 64.9376 43.6599 65.0963 42.8334C65.1097 42.7633 65.1233 42.6926 65.137 42.6212C65.1328 42.5631 65.1307 42.5078 65.1305 42.4555C65.1313 42.3983 65.1076 42.3159 65.0593 42.2085C65.0026 42.0191 64.8938 41.865 64.733 41.7461C64.5933 41.63 64.4196 41.5285 64.2119 41.4414L63.8943 41.3422L63.5447 41.2503Z" fill="white"/>
<path d="M21.4943 55.2354L22.878 56.2099L21.5828 60.2282L25.0051 57.7079L26.2629 58.5938L21.4001 61.972L19.8904 60.9088L21.4943 55.2354Z" fill="white"/>
<path d="M26.1361 58.3345L27.5244 59.0359L25.0161 64.0003L23.6279 63.2989L26.1361 58.3345Z" fill="white"/>
<path d="M27.7539 59.2238L31.7552 60.6196L31.3982 61.643L28.8637 60.7589L28.4887 61.8337L30.8282 62.6498L30.4705 63.6749L28.1311 62.8589L27.7463 63.9621L30.2808 64.8462L29.9232 65.8714L25.9219 64.4755L27.7539 59.2238ZM29.616 58.0889L30.8505 58.5195L31.3491 59.8732L30.3967 59.5409L30.0517 58.8019L29.3219 59.166L28.3996 58.8443L29.616 58.0889ZM27.0706 65.6422L28.3051 66.0728L27.9425 67.1122L26.7081 66.6816L27.0706 65.6422Z" fill="white"/>
<path d="M31.2498 60.519L36.1723 61.3087L36.0006 62.3789L34.2831 62.1034L33.5738 66.525L32.0399 66.279L32.7492 61.8573L31.0781 61.5892L31.2498 60.519Z" fill="white"/>
<path d="M37.7552 61.3666L39.9084 61.1L42.2651 64.9857L42.2782 64.9538L41.7726 60.8693L43.1465 60.6992L43.8298 66.2192L41.7064 66.482L39.3214 62.4901L39.8292 66.7144L38.4384 66.8865L37.7552 61.3666Z" fill="white"/>
<path d="M44.5962 60.1548L46.3653 59.5234L50.2995 64.0251L48.6772 64.604L47.9566 63.7084L45.8337 64.4661L45.8572 65.6105L44.4012 66.1301L44.5962 60.1548ZM47.2392 62.8216L45.7938 60.8783L45.7655 60.8884L45.8416 63.3204L47.2392 62.8216Z" fill="white"/>
<path d="M47.7648 59.1461L49.8 57.8001L52.6386 60.4338L51.301 56.8074L53.3097 55.479L56.3778 60.1183L55.2482 60.8654L52.6805 56.9829L52.6597 56.9786L54.1452 61.5949L52.9889 62.3596L49.3815 59.1083L49.3783 59.1307L51.9626 63.0383L50.8329 63.7854L47.7648 59.1461Z" fill="white"/>
<path d="M37.5001 34.2406C38.1704 34.2406 38.7137 33.6973 38.7137 33.027C38.7137 32.3568 38.1704 31.8135 37.5001 31.8135C36.8299 31.8135 36.2866 32.3568 36.2866 33.027C36.2866 33.6973 36.8299 34.2406 37.5001 34.2406Z" fill="white"/>
<path d="M37.5001 38.7138C38.1704 38.7138 38.7137 38.1704 38.7137 37.5002C38.7137 36.83 38.1704 36.2866 37.5001 36.2866C36.8299 36.2866 36.2866 36.83 36.2866 37.5002C36.2866 38.1704 36.8299 38.7138 37.5001 38.7138Z" fill="white"/>
<path d="M41.0458 35.9506C41.7161 35.9506 42.2594 35.4072 42.2594 34.737C42.2594 34.0668 41.7161 33.5234 41.0458 33.5234C40.3756 33.5234 39.8323 34.0668 39.8323 34.737C39.8323 35.4072 40.3756 35.9506 41.0458 35.9506Z" fill="white"/>
<path d="M41.6014 39.4535C42.2717 39.4535 42.815 38.9102 42.815 38.2399C42.815 37.5697 42.2717 37.0264 41.6014 37.0264C40.9312 37.0264 40.3878 37.5697 40.3878 38.2399C40.3878 38.9102 40.9312 39.4535 41.6014 39.4535Z" fill="white"/>
<path d="M39.3502 42.8612C40.0204 42.8612 40.5638 42.3179 40.5638 41.6477C40.5638 40.9774 40.0204 40.4341 39.3502 40.4341C38.68 40.4341 38.1366 40.9774 38.1366 41.6477C38.1366 42.3179 38.68 42.8612 39.3502 42.8612Z" fill="white"/>
<path d="M33.9544 35.9506C33.2842 35.9506 32.7408 35.4072 32.7408 34.737C32.7408 34.0668 33.2842 33.5234 33.9544 33.5234C34.6246 33.5234 35.168 34.0668 35.168 34.737C35.168 35.4072 34.6246 35.9506 33.9544 35.9506Z" fill="white"/>
<path d="M33.3989 39.4535C32.7286 39.4535 32.1853 38.9102 32.1853 38.2399C32.1853 37.5697 32.7286 37.0264 33.3989 37.0264C34.0691 37.0264 34.6124 37.5697 34.6124 38.2399C34.6124 38.9102 34.0691 39.4535 33.3989 39.4535Z" fill="white"/>
<path d="M35.6501 42.8612C34.9798 42.8612 34.4365 42.3179 34.4365 41.6477C34.4365 40.9774 34.9798 40.4341 35.6501 40.4341C36.3203 40.4341 36.8636 40.9774 36.8636 41.6477C36.8636 42.3179 36.3203 42.8612 35.6501 42.8612Z" fill="white"/>
</svg>
