<svg width="45" height="31" viewBox="0 0 45 31" fill="none" xmlns="http://www.w3.org/2000/svg">
<path fill-rule="evenodd" clip-rule="evenodd" d="M34.9109 10.9498C34.8398 8.95893 34.5554 6.75481 33.9155 4.26628C31.5692 5.47499 29.7205 6.82591 28.1563 8.17683C27.943 7.53692 27.6586 6.96811 27.3742 6.39931C29.1517 4.83509 31.3559 3.41306 34.1288 2.06215L35.1242 1.56445L35.4086 2.63097C36.1907 5.4039 36.6884 7.89242 36.7595 10.1676C36.1196 10.452 35.5508 10.7365 34.9109 10.9498ZM7.96365 10.2388C8.10586 7.96352 8.53246 5.47499 9.31457 2.70205L9.59898 1.63554L10.5944 2.13325C13.2962 3.48417 15.5003 4.90619 17.349 6.47041C17.0646 7.03922 16.7802 7.67913 16.5669 8.24793C15.0026 6.89702 13.154 5.5461 10.8077 4.33738C10.1678 6.82592 9.81228 9.03004 9.81228 11.0209C9.17237 10.7365 8.60356 10.4521 7.96365 10.2388Z" fill="#E5B764"/>
<path fill-rule="evenodd" clip-rule="evenodd" d="M7.3234 25.8096C11.0206 28.9381 15.8555 30.289 21.1881 30.9289L21.8991 31L20.8326 29.7202C17.9885 25.9518 15.7133 21.7569 15.2867 16.922C15.2156 16.3532 15.2156 15.7844 15.2156 15.2156C11.9449 12.0871 7.18119 9.95413 0 9.24312C0.711009 17.4197 3.41285 22.539 7.3234 25.8096ZM17.633 28.4404C14.2913 27.7294 11.0917 26.5206 8.461 24.3876C4.55045 21.117 2.84403 16.3532 2.06192 11.4473C6.11467 12.0872 10.1674 13.367 13.2959 16.1399C13.2959 16.4954 13.367 16.8509 13.367 17.1353C13.7936 21.2592 15.4289 24.9564 17.633 28.4404ZM22.3968 27.5871C20.0505 24.3876 18.1307 20.6904 17.7752 16.7087C17.7752 16.4243 17.7041 16.1399 17.7041 15.8555V15.0023C17.7752 10.594 19.8372 6.54128 22.3968 3.05733C24.9564 6.54128 26.9472 10.6651 27.0894 15.0023V15.8555C27.0894 16.1399 27.0894 16.4243 27.0183 16.7087C26.5917 20.6904 24.672 24.3165 22.3968 27.5871ZM27.0894 28.4404C30.4312 27.7294 33.6307 26.5206 36.2615 24.3876C40.172 21.117 41.8784 16.3532 42.6605 11.4473C38.6078 12.0872 34.555 13.367 31.4266 16.1399C31.4266 16.4954 31.3555 16.8509 31.3555 17.1353C30.9289 21.2592 29.2936 24.9564 27.0894 28.4404ZM23.25 29.5069L22.6812 30.289L22.3968 30.7156L22.0413 30.289L21.4725 29.5069C18.4862 25.5252 16.3532 21.4014 15.9266 16.922C15.9266 16.6376 15.8555 16.2821 15.8555 15.9266V15.0023C15.9266 10.5229 17.8463 5.54587 22.3968 0C26.9472 5.54587 28.867 10.5229 28.9381 15.0023V15.9266C28.9381 16.2821 28.9381 16.5665 28.867 16.922C28.4404 21.4014 26.3073 25.5252 23.3922 29.4358L23.25 29.5069ZM29.5069 16.922C29.0803 21.7569 26.7339 25.8807 23.961 29.7202L22.8945 31L23.6766 30.9289C28.9381 30.289 33.7729 28.9381 37.5413 25.8096C41.3807 22.6101 44.0826 17.4908 44.9358 9.24312C37.7546 9.95413 32.9197 12.0871 29.7202 15.2156C29.578 15.7844 29.5069 16.3532 29.5069 16.922Z" fill="#E5B764"/>
<path fill-rule="evenodd" clip-rule="evenodd" d="M22.3977 10.4517C25.3128 16.4952 25.6684 23.3209 22.3977 28.5824C19.1271 23.3209 19.4115 16.4241 22.3977 10.4517Z" fill="#E5B764"/>
<path fill-rule="evenodd" clip-rule="evenodd" d="M40.0307 15.9971C37.6843 22.2539 32.9917 27.231 26.9481 28.5108C28.5123 22.6095 33.6316 18.059 40.0307 15.9971Z" fill="#E5B764"/>
<path fill-rule="evenodd" clip-rule="evenodd" d="M4.69336 15.9971C7.03969 22.2539 11.7324 27.231 17.7759 28.5108C16.2828 22.6095 11.0924 18.059 4.69336 15.9971Z" fill="#E5B764"/>
</svg>
