<svg width="14" height="10" viewBox="0 0 14 10" fill="none" xmlns="http://www.w3.org/2000/svg">
<path d="M13.7463 1.19903C13.271 1.38721 12.7604 1.51383 12.2245 1.57095C12.7779 1.27602 13.1919 0.811567 13.3892 0.264374C12.869 0.539501 12.2999 0.733412 11.7065 0.837744C11.3077 0.457493 10.7793 0.205309 10.2032 0.120391C9.62714 0.0354731 9.03574 0.122578 8.52093 0.368166C8.00612 0.613755 7.59675 1.00407 7.35644 1.47844C7.11613 1.95281 7.05835 2.48466 7.19208 2.99131C6.13857 2.94432 5.10793 2.7003 4.16709 2.27513C3.22626 1.84995 2.39627 1.25312 1.73103 0.523386C1.49576 0.884103 1.37218 1.29405 1.37292 1.7113C1.3725 2.10006 1.47983 2.48289 1.68536 2.82577C1.8909 3.16865 2.18827 3.46095 2.55106 3.6767C2.13039 3.66481 1.71899 3.56356 1.35107 3.38138V3.41105C1.351 3.9564 1.56263 4.48497 1.95002 4.90705C2.33741 5.32913 2.87671 5.61872 3.47638 5.72667C3.08625 5.82143 2.67697 5.83537 2.27987 5.7674C2.44908 6.2367 2.77862 6.64712 3.22239 6.94125C3.66616 7.23538 4.20196 7.39851 4.75485 7.40782C3.81645 8.06463 2.65741 8.42083 1.46431 8.41907C1.25074 8.41907 1.03965 8.40801 0.832031 8.38587C2.04354 9.07966 3.45346 9.44794 4.89342 9.44671C9.7669 9.44671 12.4311 5.84798 12.4311 2.72699C12.4311 2.62471 12.4286 2.52288 12.4237 2.42149C12.9425 2.08723 13.3904 1.67328 13.7463 1.19903Z" fill="white"/>
</svg>
